<svg width="38" height="32" viewBox="0 0 38 32" fill="none" xmlns="http://www.w3.org/2000/svg">
<path d="M19 0C8.50659 0 0 6.71573 0 15C0 23.2843 8.50659 30 19 30C20.671 30 22.28 29.83 23.82 29.51L31.9 31.9C32.74 32.15 33.52 31.37 33.27 30.53L30.88 22.45C34.68 19.66 38 15.65 38 15C38 6.71573 29.4934 0 19 0ZM19 26C10.7157 26 4 21.0751 4 15C4 8.92487 10.7157 4 19 4C27.2843 4 34 8.92487 34 15C34 21.0751 27.2843 26 19 26Z" fill="#CAC5FE"/>
<path d="M19 9C17.3431 9 16 10.3431 16 12C16 13.6569 17.3431 15 19 15C20.6569 15 22 13.6569 22 12C22 10.3431 20.6569 9 19 9Z" fill="#CAC5FE"/>
</svg>
